<svg id="Слой_1" xmlns="http://www.w3.org/2000/svg" viewBox="0 0 70 70"><style>.st0{fill:#cc6767}</style><path class="st0" d="M29.1 27.8c.4.4.7 1 .7 1.6s-.2 1.2-.7 1.6c-.4.4-1 .7-1.6.7-.6 0-1.2-.2-1.6-.7-.4-.4-.7-1-.7-1.6s.2-1.2.7-1.6c.9-.8 2.4-.8 3.2 0zM62 18.4c.3 1.1.5 2.4.5 3.6 0 3.4-1.3 6.6-3.7 9L48 41.8c3.1 1.4 5.2 4.5 5.2 8.1 0 4.9-4 8.9-8.9 8.9h-2.2v6.9c0 2.4-1.9 4.3-4.3 4.3h-5.6c-2.4 0-4.3-1.9-4.3-4.3v-6.9h-2.2c-4.9 0-8.9-4-8.9-8.9 0-3.6 2.1-6.7 5.2-8.1L11.2 30.9c-2.4-2.4-3.7-5.6-3.7-9 0-1.2.2-2.4.5-3.6-2.7-2.3-4.3-5.7-4.3-9.4V4.3C3.7 1.9 5.6 0 8 0s4.3 1.9 4.3 4.3V9c0 .9.3 1.8.8 2.5 2.1-1.4 4.5-2.1 7-2.1h29.8c2.5 0 4.9.7 7 2.1.5-.7.8-1.6.8-2.5V4.3C57.7 1.9 59.6 0 62 0s4.3 1.9 4.3 4.3V9c0 3.6-1.6 7-4.3 9.4zM9.3 15.5c.5-.8 1-1.5 1.6-2.1-1-1.2-1.5-2.8-1.5-4.4V4.3C9.3 3.6 8.7 3 8 3s-1.3.6-1.3 1.3V9c0 2.4.9 4.7 2.6 6.5zm41.1 19.7c-4.6 1.4-9.9 2.1-15.4 2.1s-10.8-.7-15.4-2.1L30.5 46l.2.2s0 .1.1.1l.1.1v15.2c.4-.1.8-.2 1.3-.2h5.6c.5 0 .9.1 1.3.2V47.1v-.3-.1-.2s0-.1.1-.1c0 0 0-.1.1-.1.1-.1.1-.2.2-.2l10.9-10.9zM39.1 65.7c0-.7-.6-1.3-1.3-1.3h-5.6c-.7 0-1.3.6-1.3 1.3s.6 1.3 1.3 1.3h5.6c.7 0 1.3-.6 1.3-1.3zm14.8-35C48.7 26 42.1 23.5 35 23.5S21.3 26 16.1 30.7c5.2 2.3 12 3.5 18.9 3.5s13.7-1.2 18.9-3.5zm-26 25.2v-8.2l-3.6-3.6c-2.7.6-4.6 3-4.6 5.8 0 3.3 2.7 6 6 6h2.2zm17.8-11.8l-3.6 3.6v8.2h2.2c3.3 0 6-2.7 6-6 0-2.8-2-5.2-4.6-5.8zM59.6 22c0-2.6-1-5-2.8-6.8-1.8-1.8-4.3-2.8-6.8-2.8H20.1c-2.6 0-5 1-6.8 2.8-1.8 1.8-2.8 4.3-2.8 6.8s1 5 2.8 6.8l.2.2c5.8-5.5 13.4-8.6 21.5-8.6s15.7 3 21.5 8.6l.2-.2c1.9-1.8 2.9-4.2 2.9-6.8zm1.1-6.5c1.6-1.8 2.6-4.1 2.6-6.5V4.3c0-.7-.6-1.3-1.3-1.3-.7 0-1.3.6-1.3 1.3V9c0 1.6-.6 3.2-1.5 4.4.6.6 1.1 1.3 1.5 2.1zM42.4 31.6c.6 0 1.2-.2 1.6-.7.4-.4.7-1 .7-1.6s-.2-1.2-.7-1.6c-.8-.8-2.3-.8-3.2 0-.4.4-.7 1-.7 1.6s.2 1.2.7 1.6c.5.5 1.1.7 1.6.7zm-9-3.8c-.4.4-.7 1-.7 1.6s.2 1.2.7 1.6c.4.4 1 .7 1.6.7s1.2-.2 1.6-.7c.4-.4.7-1 .7-1.6s-.2-1.2-.7-1.6c-.9-.8-2.4-.8-3.2 0z"/></svg>