<svg id="Слой_1" xmlns="http://www.w3.org/2000/svg" viewBox="0 0 50 50"><style>.st0{fill:#535353}</style><path class="st0" d="M48.1 7.1L41.5.5c-.7-.7-1.7-.7-2.4 0l-6.6 6.6c-.7.7-.7 1.7 0 2.4s1.7.7 2.4 0l3.6-3.6c-.5 7.4-4.3 13.9-9.9 18.3C25.8 21 21.6 19 17 19 8.4 19 1.5 26 1.5 34.5S8.4 50 17 50s15.5-7 15.5-15.5c0-2.7-.7-5.3-2-7.5 6.6-5 10.9-12.7 11.4-21.2l3.7 3.7c.7.7 1.7.7 2.4 0 .3-.3.5-.8.5-1.2.1-.4-.1-.9-.4-1.2zM28.9 34.5c0 6.6-5.3 11.9-11.9 11.9S5 41 5 34.5s5.4-12 12-12c3.4 0 6.4 1.4 8.6 3.6.8.8 1.5 1.8 2 2.8.8 1.7 1.3 3.6 1.3 5.6z"/></svg>