<svg id="Слой_1" xmlns="http://www.w3.org/2000/svg" viewBox="0 0 50 50"><style>.st0{fill:#535353}</style><path class="st0" d="M25.7 25.4c-3.2-3.2-8.7-2.9-12.3.7-3.1 3-3.7 7.5-1.9 10.7-1.9 1.7-2.9 3.2-3.8 4.5-1.3 2-2.3 3.6-6.6 5.3-.9.4-1.3 1.4-1 2.3.4.9 1.4 1.3 2.3 1 3-1.2 4.7-2.4 6-3.7 1-1 1.6-2 2.3-3 .8-1.3 1.7-2.5 3.3-3.9 3.2 2.1 7.9 1.4 11-1.7 3.6-3.6 3.9-9.1.7-12.2zm-3.2 9.7c-2.2 2.2-5.5 2.5-7.3.7s-1.5-5.1.7-7.3 5.5-2.5 7.3-.7c1.9 1.8 1.5 5.1-.7 7.3zM5.8 28c2.3-2.3 3.2-4.3 3.9-6.1.9-2.2 1.7-3.9 5.2-5.9 3.2 2.2 8 1.6 11.2-1.6 3.6-3.6 3.9-9.1.7-12.3-3.1-3.1-8.6-2.8-12.2.8-3 3-3.7 7.2-2 10.4-4 2.4-5 4.8-6 7.2-.7 1.6-1.4 3.2-3.2 5-.7.7-.7 1.8 0 2.5.6.7 1.7.7 2.4 0zM17.1 5.4c2.2-2.2 5.5-2.5 7.3-.7 1.8 1.8 1.5 5.1-.7 7.3s-5.5 2.5-7.3.7c-1.8-1.8-1.5-5.1.7-7.3zM35.6 25.2c-3.2 3.2-3.8 8-1.6 11.2-2 3.7-3.6 4.5-5.8 5.6-1.6.8-3.5 1.8-5.7 4-.7.7-.7 1.8 0 2.5s1.8.7 2.5 0c1.8-1.8 3.3-2.6 4.8-3.3 1.4-.8 2.8-1.5 4.3-2.9.9-.9 1.7-2 2.6-3.5 3.2 1.6 7.5.9 10.4-2 3.6-3.6 3.9-9.1.7-12.3s-8.7-2.9-12.2.7zm9 9c-2.2 2.2-5.5 2.5-7.3.7s-1.5-5.1.7-7.3 5.5-2.5 7.3-.7c1.9 1.8 1.5 5.1-.7 7.3z"/></svg>