<svg id="Слой_1" xmlns="http://www.w3.org/2000/svg" viewBox="0 0 50 50"><style>.st0{fill:#535353}</style><path class="st0" d="M38.6 0c-4 0-5.6 3.2-5.5 8.6v1.8h-1.2c-2.9 0-5.2 2.3-5.2 5.2v11.5h-3.4V15.6c0-2.9-2.3-5.2-5.2-5.2h-1.2V8.6C17 3.2 15.4-.1 11.4 0 6.2 0 2 5.8 2 13s4.2 13 9.4 13c5-.4 6.6-3.9 5.9-9.7-.2-1-.3-2-.3-3.1h1.1c1.3 0 2.4 1.1 2.4 2.4v11.5c-3.5 0-8.7.3-8.7 5.9 0 4.6 3.6 8.7 9 10.1v5.5c0 .8.6 1.4 1.4 1.4h5.6c.8 0 1.4-.6 1.4-1.4v-5.5c5.3-1.4 9-5.5 9-10.1 0-5.5-5.2-5.9-8.7-5.9V15.6c0-1.3 1.1-2.4 2.4-2.4H33c-.1 1.1-.2 2.1-.3 3.1-.7 5.7.9 9.3 5.9 9.7 5.2 0 9.4-5.8 9.4-13S43.8 0 38.6 0zM11.4 23.2c-2.2 0-4.2-1.8-5.4-4.5h1c.8 0 1.4-.6 1.4-1.4s-.6-1.4-1.4-1.4H5.1c-.2-.9-.3-1.8-.3-2.8h5.1c.8 0 1.4-.6 1.4-1.4s-.6-1.4-1.4-1.4H5c.8-4.3 3.4-7.6 6.4-7.6 1.9 0 2.9 1.7 2.8 5.7-.1 3.1 0 5.8.4 8.2.3 3.8-.1 6.6-3.2 6.6zm24 9.8c0 3.6-3.2 6.8-7.8 7.7-.6.1-1.1.7-1.1 1.4v5.2h-2.8V42c0-.7-.5-1.2-1.1-1.4-4.6-.9-7.8-4-7.8-7.7 0-2.2.9-3.1 6.5-3.1H29c5.5.1 6.4 1 6.4 3.2zm3.2-9.8c-3 0-3.5-2.8-3.1-6.5.4-2.4.5-5.1.4-8.2-.2-4 .8-5.8 2.8-5.7 3.6 0 6.6 4.7 6.6 10.2s-3.1 10.2-6.7 10.2z"/></svg>